# xmcd
#
# Track frame offsets:
#	150
#	15712
#	28637
#	44600
#	65115
#	83955
#	116957
#	160660
#	180732
#	200500
#	214817
#	246332
#	262345
#	277300
#	288520
#	316180
#
# Disc length: 4612 seconds
#
# Revision: 6
# Processed by: cddbd v1.5.2PL0 Copyright (c) Steve Scherf et al.
# Submitted via: dBpowerAMP V4.0
#
DISCID=02120210
DTITLE=Michel Ball - The Very Best of Michael Ball
DYEAR=1999
DGENRE=Ballad
TTITLE0=Hot Stuff
TTITLE1=Everybody's Talkin'
TTITLE2=Love on The Rocks
TTITLE3=Something Inside so Strong
TTITLE4=Someone Else's Dream
TTITLE5=Medley - The Way we Were, The Rose
TTITLE6=Medley - Prepare ye The Way of The Lord, Gethsemane (2)
TTITLE7=Oh! What a Circus
TTITLE8=My Heart Will go On
TTITLE9=Empty Chairs, Empty Tables
TTITLE10=Medley - we Have All The Time in The World, Millenium
TTITLE11=Let The River Run
TTITLE12=I'll be There For You (Theme From Friends)
TTITLE13=One Step Out of Time
TTITLE14=Blues Brothers Medley- Shake Your Tail Feathers, Think, Everybody Needs Somebody to Love
TTITLE15=Love Changes Everything
EXTD=
EXTT0=
EXTT1=
EXTT2=
EXTT3=
EXTT4=
EXTT5=
EXTT6=
EXTT7=
EXTT8=
EXTT9=
EXTT10=
EXTT11=
EXTT12=
EXTT13=
EXTT14=
EXTT15=
PLAYORDER=
